/* XPM */
static char *e2e84e69063c4f6df2041aac0296515fsdoFvKAg9gcm8VK9[] = {
/* columns rows colors chars-per-pixel */
"64 64 234 2 ",
"   c #040508",
".  c #140608",
"X  c #0D0D11",
"o  c #17171B",
"O  c #100E11",
"+  c #380006",
"@  c #2D1419",
"#  c #3C181D",
"$  c #2F0B0F",
"%  c #1C1C21",
"&  c #1E2426",
"*  c #25272B",
"=  c #37252B",
"-  c #2C2D33",
";  c #37373C",
":  c #351A23",
">  c #5A0314",
",  c #540309",
"<  c #63030C",
"1  c #640114",
"2  c #6C061A",
"3  c #7D061A",
"4  c #750E13",
"5  c #461924",
"6  c #5E1C20",
"7  c #650D26",
"8  c #780A25",
"9  c #691628",
"0  c #76142A",
"q  c #711D31",
"w  c #4E3535",
"e  c #78262A",
"r  c #7A2735",
"t  c #78373B",
"y  c #6D3036",
"u  c #3D3E41",
"i  c #773643",
"p  c #3F4044",
"a  c #45454A",
"s  c #574545",
"d  c #58585C",
"f  c #524F56",
"g  c #744E53",
"h  c #5A5B60",
"j  c #765D61",
"k  c #7C6566",
"l  c #77797C",
"z  c #6C6C70",
"x  c #850D1A",
"c  c #830D2B",
"v  c #8C0B2A",
"b  c #870724",
"n  c #920D2B",
"m  c #9B0A2C",
"M  c #950728",
"N  c #89122A",
"B  c #97112E",
"V  c #9C0E32",
"C  c #940C30",
"Z  c #8D1433",
"A  c #881936",
"S  c #971734",
"D  c #820E31",
"F  c #A1092E",
"G  c #A40C32",
"H  c #AC0D36",
"J  c #A31335",
"K  c #A51839",
"L  c #872736",
"P  c #952B3A",
"I  c #8E323C",
"U  c #83333C",
"Y  c #913039",
"T  c #A0263B",
"R  c #A71440",
"E  c #962645",
"W  c #883746",
"Q  c #983A46",
"!  c #8E3E55",
"~  c #A6334A",
"^  c #B53956",
"/  c #AC2744",
"(  c #8A4348",
")  c #97404B",
"_  c #9A4A57",
"`  c #925057",
"'  c #A24549",
"]  c #A74658",
"[  c #B2495C",
"{  c #B7515E",
"}  c #A7605A",
"|  c #9B5665",
" . c #965763",
".. c #B74762",
"X. c #A65361",
"o. c #B75767",
"O. c #886367",
"+. c #9D6B71",
"@. c #97787A",
"#. c #8E6F6F",
"$. c #A9656B",
"%. c #B5646B",
"&. c #AA6C75",
"*. c #BA6875",
"=. c #A97679",
"-. c #B9787B",
";. c #C0475A",
":. c #C15368",
">. c #C3656D",
",. c #C66977",
"<. c #C9737D",
"1. c #D16D76",
"2. c #77807F",
"3. c #8E807D",
"4. c #B68979",
"5. c #C5837B",
"6. c #7B7C81",
"7. c #B67A85",
"8. c #CA7986",
"9. c #D67888",
"0. c #D47C91",
"q. c #E87F8D",
"w. c #86878C",
"e. c #998487",
"r. c #8D8D92",
"t. c #929396",
"y. c #8E9698",
"u. c #B7918A",
"i. c #B48E92",
"p. c #9D9EA2",
"a. c #9FA0A4",
"s. c #A5A7AB",
"d. c #B8ABA8",
"f. c #AEAEB4",
"g. c #B8B8BA",
"h. c #C7848A",
"j. c #DA808D",
"k. c #D1858B",
"l. c #C78A96",
"z. c #DC8494",
"x. c #DD8B9B",
"c. c #D58898",
"v. c #C89797",
"b. c #D8979B",
"n. c #D0908E",
"m. c #E68A98",
"M. c #EC8F97",
"N. c #CDA496",
"B. c #DD8EA2",
"V. c #CB98A3",
"C. c #D59DAA",
"Z. c #DA9BAB",
"A. c #D996A5",
"S. c #E59BAB",
"D. c #E597A7",
"F. c #F09AAD",
"G. c #C9A6A5",
"H. c #D5ABAC",
"J. c #D8A2AB",
"K. c #C9B0A9",
"L. c #D4B1AD",
"P. c #D4ABB3",
"I. c #DBACB5",
"U. c #DCA8B6",
"Y. c #CDB6B8",
"T. c #D4B4B3",
"R. c #DAB6B2",
"E. c #DCB3BB",
"W. c #D4BAB9",
"Q. c #CBAEB0",
"!. c #E6A3AB",
"~. c #E9A3B3",
"^. c #E5ACBB",
"/. c #EAAEBE",
"(. c #E3A7B2",
"). c #F2A8BA",
"_. c #E5B5BC",
"`. c #F2B8BB",
"'. c #DEC3BC",
"]. c #E1C4BE",
"[. c #BDBDC4",
"{. c #B7B7C1",
"}. c #DBBDC2",
"|. c #C0BFC7",
" X c #EEAFC1",
".X c #EBBAC4",
"XX c #E7B6C2",
"oX c #F5B8C6",
"OX c #C3C3CB",
"+X c #CACACE",
"@X c #C5C5CB",
"#X c #CDCDD4",
"$X c #D2D2DA",
"%X c #D8D6D6",
"&X c #D4CACA",
"*X c #E7C6C6",
"=X c #F8CACA",
"-X c #F9CAD4",
";X c #EBD2D6",
":X c #E9D3D6",
">X c #F6DADE",
",X c #FAD2DB",
"<X c #EACDD1",
"1X c #DCDCE3",
"2X c #FDDDE5",
"3X c #DFE0E5",
"4X c #EAE9ED",
"5X c #E3E4EA",
"6X c #FEE2E5",
"7X c #FFE4ED",
"8X c #FFEAEF",
"9X c #F4E3E4",
"0X c #EDEDF3",
"qX c #FFEDF3",
"wX c #FFEEFC",
"eX c #FFF5F5",
"rX c #FCF9F6",
"tX c #FFF5FB",
"yX c #F6FEFC",
"uX c #FEFAFA",
"iX c #F9FEFA",
"pX c #FFFFFB",
"aX c #FEFEFB",
"sX c #FFFAFD",
"dX c #FAFFFE",
"fX c #FFFFFD",
"gX c #FFFDFF",
"hX c #FFFEFF",
"jX c #FEFFFF",
"kX c white",
"lX c #FEFEFE",
"zX c #FDFEFE",
"xX c #FFFFFF",
"cX c #F5F6F8",
/* pixels */
"kXkXkXkXkXkXkXkXkXkXkXkXkXkXkXkXdXdXkXkXgXkXkXkXgXgXkXyXyXdXpXuXpXiXiXiXpXpXcXkXdXdXkXkXkXkXkXdXkXkXkXkXkXkXkXkXkXkXkXkXkXkXkXkX",
"kXkXkXkXkXkXkXkXkXkXkXkXkXkXkXkXdXkXkXgXkXkXkXkXgXgXrXkXiXpXuXeXuXpXpXpXrXrXkXiXdXdXkXkXkXkXkXkXkXkXkXkXkXkXkXkXkXkXkXkXkXkXkXkX",
"kXkXkXkXkXkXkXkXkXkXkXkXkXkXkXkXyXdXkXgXkXkXuXkXpXpXeXtX8X,X-X,X,X2XtXkXkXkXkXkXkXkXkXkXkXkXkXkXkXkXkXkXkXkXkXkXkXkXkXkXkXkXkXkX",
"kXkXkXkXkXkXkXkXkXkXkXkXkXkXkXkXdXkXkXkXkXpXpXpXpXeX>XE.P.J.C.C.Z.U.E.>XtXtXeXkXdXdXkXkXkXkXkXkXkXkXkXkXkXkXkXkXkXkXkXkXkXkXkXkX",
"kXkXkXkXkXkXkXkXkXkXkXkXkXkXkXkXkXpXuXpXpXiXpXeX6XXXU.^././. X X X/./.J..X7XtXkXdXyXdXkXkXkXkXkXkXkXkXkXkXkXkXkXkXkXkXkXkXkXkXkX",
"kXkXkXkXkXkXkXkXkXkXkXkXkXkXkXkXuXpXpXpXyXpXpX>X_.oX/.^.^..X.XXXXXXX^. X XU.2XgXkXdXdXkXkXkXkXkXkXkXkXkXkXkXkXkXkXkXkXkXkXkXkXkX",
"kXkXkXkXkXkXkXkXkXkXkXkXkXkXkXkXgXgXkXyXiXpX6XoXc.0.oX-X;X:X<X>X;X;X-X/.7.Z.^.7XgXkXkXkXgXkXdXdXkXkXkXkXkXkXkXkXkXkXkXkXkXkXkXkX",
"kXkXkXkXkXkXkXkXkXkXkXkXkXkXkXkXgXuXdXyXdXeX*X/.).! (.E.W.Y.T.Q.Y.}.*XC.! oX^.XXgXkXkXkXkXkXkXdXkXkXkXkXkXkXkXkXkXkXkXkXkXkXkXkX",
"kXkXkXkXkXkXkXkXkXkXkXkXkXkXkXkXkXkXyXdXkX9XXXoXoXZ.l.l.C.V.Z.Z.J.C.C.A.(.oXXXP.9XpXiXkXkXkXkXkXkXkXkXkXkXkXkXkXkXkXkXkXkXkXkXkX",
"kXkXkXkXkXkXkXkXkXkXkXkXkXkXkXkXkXkXdXkXkX:X_. X^.J.A.Z.B.D.B.A.S.S.!.Z.~.^.^.P.:XpXkXiXkXkXkXkXkXkXkXkXkXkXkXkXkXkXkXkXkXkXkXkX",
"kXkXkXkXkXkXkXkXkXkXkXkXkXkXkXkXkXkXkXgXtX.X/.).S.A.S.A.x.B.B.D.D.S.S.!.S.~.~.J.}.eXkXkXkXkXkXkXkXkXkXkXkXkXkXkXkXkXkXkXkXkXkXkX",
"kXkXkXkXkXkXkXkXkXkXkXkXkXkXkXkXkXkXkXgXqXE./.~.S.8.x.x.c.c.B.x.x.D.D.D.z.).F.J.P.eXkXkXkXkXkXkXkXkXkXkXkXkXkXkXkXkXkXkXkXkXkXkX",
"kXkXkXkXkXkXkXkXkXkXkXkXkXkXkXkXkXkXgXgX8XI.^.A.x.o.8.m.9.0.z.x.0.z.F.9.8.F.D.Z.P.eXpXkXkXkXkXkXkXkXkXkXkXkXkXkXkXkXkXkXkXkXkXkX",
"kXkXkXkXkXkXkXkXkXkXkXkXkXkXkXkXkXkXuXuX8XP.(.c.8.X.<.0.9.<.j.z.<.9.m.8.>.m.m.S.J.qXpXpXkXdXkXkXkXkXkXkXkXkXkXkXkXkXkXkXkXkXkXkX",
"kXkXkXkXkXkXkXkXkXkXkXkXkXkXkXkXkXkXkXuXqXH.!.k.*.%.9.,.9.o.9.0.>.<.8.b.-.8.j.S.C.qXuXpXdXyXkXkXkXkXkXkXkXkXkXkXkXkXkXkXkXkXkXkX",
"kXkXkXkXkXkXkXkXkXkXkXkXkXkXkXkXdXdXkXtXeXH.!.8.$.-.k.%.<.%.<.<.%.-.7.^.b.&.j.x.Z.tXuXpXkXdXkXkXkXkXkXkXkXkXkXkXkXkXkXkXkXkXkXkX",
"kXkXkXkXkXkXkXkXkXkXkXkXkXkXkXkXkXdXkXgXeXv.S.k.$.=.+.+.&.h.-.-.u.=.k @.v.-.8.x.l.tXpXpXkXkXkXkXkXkXkXkXkXkXkXkXkXkXkXkXkXkXkXkX",
"kXkXkXkXkXkXkXkXkXkXkXkXkXkXkXkXkXkXkXgXtXv.!.k.$.u.s # g H.H._.L.k w d L.h.*.D.i.tXpXpXpXkXkXkXkXkXkXkXkXkXkXkXkXkXkXkXkXkXkXkX",
"kXkXkXkXkXkXkXkXkXkXkXkXkXkXkXkXkXkXdXgXtXl.b.b.-.v.3.s u._.L.'.*XK.#.e.R.n.9.x.7.tXuXpXkXkXkXkXkXkXkXkXkXkXkXkXkXkXkXkXkXkXkXkX",
"kXkXkXkXkXkXkXkXkXkXkXkXkXkXkXkXpXkXdXgXtXl.,.D.l.I.a.d.T.L.].W.'.W.Y.W.=Xn.j.*.&.tXeXpXkXkXkXkXkXkXkXkXkXkXkXkXkXkXkXkXkXkXkXkX",
"kXkXkXkXkXkXkXkXkXkXkXkXkXkXkXkXpXpXkXuXtXh.) M.h.XXW.W.T._.T.].*X*X*X*X`.k.m.[ | qXuXpXkXkXkXkXkXkXkXkXkXkXkXkXkXkXkXkXkXkXkXkX",
"kXkXkXkXkXkXkXkXkXkXkXkXkXkXkXkXpXpXkXuXtXh.I j.8.A..XT.R.G.L.R.K.'.E.=Xn.%.M.{ | 6XuXpXkXkXkXkXkXkXkXkXkXkXkXkXkXkXkXkXkXkXkXkX",
"kXkXkXkXkXkXkXkXkXkXkXkXkXkXkXkXpXpXkXuXtX7.Q 1.z._ h.b.H.R.R.H.R.T.J.&.W o.M.[ ) -XeXpXkXkXkXkXkXkXkXkXkXkXkXkXkXkXkXkXkXkXkXkX",
"kXkXkXkXkXkXkXkXkXkXkXkXkXkXkXkXkXkXuXuXeX&.' o.m._ r ( u.N.u.K.Q.i.g t e >.q.{ U `.eXrXkXkXkXkXkXkXkXkXkXkXkXkXkXkXkXkXkXkXkXkX",
"kXkXkXkXkXkXkXkXkXkXkXkXkXkXkXkXkXkXuXuX6X$.) ~ ,.*.( t 4.N.u.K.Y.d.j i U <.>.] L l.eXpXpXkXkXuXkXkXkXkXkXkXkXkXkXkXkXkXkXkXkXkX",
"kXkXkXkXkXkXkXkXkXkXkXkXkXkXkXkXkXkXkXuX-X_ Q P ' 8.(  .b.4.v.K.Y.#.w ` _ j.] I e &.eXpXpXkXkXkXkXkXkXkXkXkXkXkXkXkXkXkXkXkXkXkX",
"kXkXkXkXkXkXkXkXkXkXkXkXkXkXkXkXdXdXkXuX`.L P S L k.%.t <.5.5.=.e.s . +.X.8._ U r ` 6XuXkXkXgXkXkXkXkXkXkXkXkXkXkXkXkXkXkXkXkXkX",
"kXkXkXkXkXkXkXkXkXkXkXkXkXkXkXkXdXdXiXtXk.N K S I <.,.< 4 >.e y O.j w =.r ,._ W I W *XuXgXkXkXkXkXkXkXkXkXkXkXkXkXkXkXkXkXkXkXkX",
"kXkXkXkXkXkXkXkXkXkXkXkXkXkXkXkXyXdXuXtX%.S K B r _ 9.L 4 x 2 X.( O.O.-.9 :.o.L I r V.tXgXkXkXkXkXkXkXkXkXkXkXkXkXkXkXkXkXkXkXkX",
"kXkXkXkXkXkXkXkXkXkXkXkXkXkXkXkXdXkXpXqX] K J v 0 W 9.P 3 n 2 o.r 6 ` } 4 ^ o.Y Y r 7.tXgXpXkXdXkXkXkXkXkXkXkXkXkXkXkXkXkXkXkXkX",
"kXkXkXkXkXkXkXkXkXkXkXkXkXkXkXkXkXkXeX-XA n M N 0 9 o.0 n Z 7 *.L 0 e ' x B ;.~ P L | 7XgXkXdXdXkXkXkXkXkXkXkXkXkXkXkXkXkXkXkXkX",
"kXkXkXkXkXkXkXkXkXkXkXkXkXkXkXkXkXuXuXoXA b 3 8 7 ! W 9 8 Z 7 | U > , ' x M b T Y e ! ,XgXkXdXdXkXkXkXkXkXkXkXkXkXkXkXkXkXkXkXkX",
"kXkXkXkXkXkXkXkXkXkXkXkXkXkXkXkXdXkXuX_.0 b 2 > + H.O.i 8 D 9 O.g $ $ y 7 c m n x.A. .I.tXkXkXkXkXkXkXkXkXkXkXkXkXkXkXkXkXkXkXkX",
"kXkXkXkXkXkXkXkXkXkXkXkXkXkXkXkXyXiXuXV.r 0 0 > + O.#.| 8 c i i.g $ $ ` 9 8 V v *.qXU.G.gXuXkXuXkXkXkXkXkXkXkXkXkXkXkXkXkXkXkXkX",
"kXkXkXkXkXkXkXkXkXkXkXkXkXkXkXkXkXtXuXT.V.9 0 1 + y | L v S 0 _ X.q 1 [ ] 1 v S q J.tX:XkXkXyXdXkXkXkXkXkXkXkXkXkXkXkXkXkXkXkXkX",
"kXkXkXkXkXkXkXkXkXkXkXkXkXkXkXkXgXgXtXeX:X5 q 2 , 2 A c V n c [ A N n S o.> c N 0 9 eXpXkXkXyXyXkXkXkXkXkXkXkXkXkXkXkXkXkXkXkXkX",
"kXkXkXkXkXkXkXkXkXkXkXkXkXkXkXkXkXkXeXpX%X$ 9 1 < S S S M V Z ^ ~ b J n %.W 2 c Z > @.pXeXkXkXkXkXkXkXkXkXkXkXkXkXkXkXkXkXkXkXkX",
"kXkXkXkXkXkXkXkXkXkXkXkXkXkXkXkXkXkXkXuXrXk +.W b J V J G J b ^ ~ b m b ] z.1 0 Z 0 $ %XkXkXgXkXkXkXkXkXkXkXkXkXkXkXkXkXkXkXkXkX",
"kXkXkXkXkXkXkXkXkXkXkXkXkXkXkXkXkXgXkXkXpXeXeXA.^ H J G G m M / ^ b m m S 9.1 0 8 9 # d.kXrXkXgXkXkXkXkXkXkXkXkXkXkXkXkXkXkXkXkX",
"kXkXkXkXkXkXkXkXkXkXkXkXkXkXkXkXkXkXkXuXiXpXpXoX^ H G G G G M S :.c m m M 1.Q > e $.E.eXpXkXkXkXkXkXkXkXkXkXkXkXkXkXkXkXkXkXkXkX",
"kXkXkXkXkXkXkXkXkXkXkXkXkXkXkXkXkXkXkXkXdXyXpXqX^ F H G G m M v ..c V G M ~ oXH.=XG.W.&XrXkXiXkXkXkXkXkXkXkXkXkXkXkXkXkXkXkXkXkX",
"kXkXkXkXkXkXkXkXkXkXkXkXkXkXkXkXkXkXkXiXdXyXpX,XE G G F J M M v [ A v m V D 7.eXeX&XW.W.4XdXdXdXkXkXkXkXkXkXkXkXkXkXkXkXkXkXkXkX",
"kXkXkXkXkXkXkXkXkXkXkXkXkXkXkXkXdXyXdXdXkXpXeXC.D R V M J V m M ..E Z Z Z 0 =.eXeXpXtXgXkXdXkXkXkXkXkXkXkXkXkXkXkXkXkXkXkXkXkXkX",
"kXkXkXkXkXkXkXkXkXkXkXkXkXkXkXkXdXyXdXdXkXtXgX<X! A E A A D 8 8 ! W 7 9 ) -XtXuXpXkXuXgXuXkXkXiXkXkXkXkXkXkXkXkXkXkXkXkXkXkXkXkX",
"kXkXkXkXkXkXkXkXkXkXkXkXkXkXkXkXkXpXkXkXgXkXkXgXwXi $ 5 # 5 c.l.5 : = @ 7.uXeXkXiXkXkXdXdXdXkXkXkXkXkXkXkXkXkXkXkXkXkXkXkXkXkXkX",
"kXkXkXkXkXkXkXkXkXkXkXkXkXkXkXkXkXkXkXkXkXkXgXtXgXz o o O = tX2X= o * & l dXuXdXkXdXdXyXkXkXkXkXkXkXkXkXkXkXkXkXkXkXkXkXkXkXkXkX",
"kXkXkXkXkXkXkXkXkXkXkXkXkXkXkXkXuXpXkXkXdXkXkXkXkXz o % O d kXkXf % & % s.kXuXkXkXkXdXdXkXkXkXkXkXkXkXkXkXkXkXkXkXkXkXkXkXkXkXkX",
"kXkXkXkXkXkXkXkXkXkXkXkXkXkXkXkXkXkXpXkXkXdXkXuXdXy.X * X l kXdXr.X * % p.kXuXkXgXkXdXdXkXgXkXkXkXkXkXkXkXkXkXkXkXkXkXkXkXkXkXkX",
"kXkXkXkXkXkXkXkXkXkXkXkXkXkXkXkXkXkXkXkXkXkXkXkXdX4X- %   t.kXkX+Xo % - u 5XuXkXkXkXkXkXkXkXkXkXkXkXkXkXkXkXkXkXkXkXkXkXkXkXkXkX",
"kXkXkXkXkXkXkXkXkXkXkXkXkXkXkXkXkXkXkXkXkXkXkXkXkX0Xa O ; %XkXkXkXw.o ; - s.gXuXkXkXkXkXkXkXkXkXkXkXkXkXkXkXkXkXkXkXkXkXkXkXkXkX",
"kXkXkXkXkXkXkXkXkXkXkXkXkXkXkXkXkXkXkXkXkXkXkXkXkX#X%   a cXkXkXkXuX; o * d kXkXkXkXkXkXkXkXkXkXkXkXkXkXkXkXkXkXkXkXkXkXkXkXkXkX",
"kXkXkXkXkXkXkXkXkXkXkXkXkXkXkXkXkXkXkXkXkXkXkXkXkX#Xw.w.l [.kXuXkXuXh - d w.+XkXkXkXkXkXkXkXkXkXkXkXkXkXkXkXkXkXkXkXkXkXkXkXkXkX",
"kXkXkXkXkXkXkXkXkXkXkXkXkXkXkXkXkXkXkXkXkXkXkXkXuX1X#X@X+X4XkXkXuXuX$XOX#X5X[.kXkXkXkXkXkXkXkXkXkXkXkXkXkXkXkXkXkXkXkXkXkXkXkXkX",
"kXkXkXkXkXkXkXkXkXkXkXkXkXkXkXkXkXkXkXkXkXkXkXkXkX1X[.OX|.uXgXkXkXkX1X[.@X#XOXcXkXkXkXkXkXkXkXkXkXkXkXkXkXkXkXkXkXkXkXkXkXkXkXkX",
"kXkXkXkXkXkXkXkXkXkXkXkXkXkXkXkXkXkXkXkXkXkXkXkXkX5XOX[.+XcXkXkXuXkX0X@X@X$XOXuXkXkXkXkXkXkXkXkXkXkXkXkXkXkXkXkXkXkXkXkXkXkXkXkX",
"kXkXkXkXkXkXkXkXkXkXkXkXkXkXkXkXkXkXkXkXkXkXkXkXkX1XOXOX[.kXkXkXkXdXuX#X{.$X1XkXkXkXkXkXkXkXkXkXkXkXkXkXkXkXkXkXkXkXkXkXkXkXkXkX",
"kXkXkXkXkXkXkXkXkXkXkXkXkXkXkXkXkXpXkXkXiXkXkXdXuX1X#X[.#XkXkXkXuXkXuX#X@X$X0XkXkXkXkXkXkXkXkXkXkXkXkXkXkXkXkXkXkXkXkXkXkXkXkXkX",
"kXkXkXkXkXkXkXkXkXkXkXkXkXkXkXkXkXkXkXkXkXkXkXkX4X#X$X#X+XcXkXkXkXkXcX$X$X$X4XkXkXkXkXkXkXkXkXkXkXkXkXkXkXkXkXkXkXkXkXkXkXkXkXkX",
"kXkXkXkXkXkXkXkXkXkXkXkXkXkXkXkXkXkXkXkXkXiXkX[.OX5X1X$Xr.#XkXkXuXkXcX1X5X5X4XkXkXkXkXkXkXkXkXkXkXkXkXkXkXkXkXkXkXkXkXkXkXkXkXkX",
"kXkXkXkXkXkXkXkXkXkXkXkXkXkXkXkXkXuXkXkXiXkXt.* p w.f.d   +XkXkXuXkX5Xt.z r.#XkXkXkXkXkXkXkXkXkXkXkXkXkXkXkXkXkXkXkXkXkXkXkXkXkX",
"kXkXkXkXkXkXkXkXkXkXkXkXkXkXkXkXkXkXkXkXkXiXl u a d h 6.f.iXiXkXiXkXw.o o X a uXkXkXkXkXkXkXkXkXkXkXkXkXkXkXkXkXkXkXkXkXkXkXkXkX",
"kXkXkXkXkXkXkXkXkXkXkXkXkXkXkXkXkXkXkXiXkXkXkXkXuXuXdXkXkXkXkXkXkXdX#Xs.a.p.g.kXkXkXkXkXkXkXkXkXkXkXkXkXkXkXkXkXkXkXkXkXkXkXkXkX",
"kXkXkXkXkXkXkXkXkXkXkXkXkXkXkXkXkXkXkXkXiXkXdXuXkXkXkXcXuXkXrXpXkXkXkXkXkXdXuXkXkXkXkXkXkXkXkXkXkXkXkXkXkXkXkXkXkXkXkXkXkXkXkXkX",
"kXkXkXkXkXkXkXkXkXkXkXkXkXkXkXkXkXkXkXkXkXiXkXkXdXkXkXdXkXkXkXpXkXkXkXiXuXkXuXkXkXkXkXkXkXkXkXkXkXkXkXkXkXkXkXkXkXkXkXkXkXkXkXkX"
};
