/* XPM */
static char *_eb50a22fef3491b92795e33e71b9b67rLPh89ecnJZm7318[] = {
/* columns rows colors chars-per-pixel */
"64 64 229 2 ",
"   c #00000C",
".  c #010214",
"X  c #01051C",
"o  c #020B1C",
"O  c #0B0C1B",
"+  c #0A0817",
"@  c #000622",
"#  c #010C24",
"$  c #020E29",
"%  c #090F2B",
"&  c #0D0E20",
"*  c #041125",
"=  c #0B1325",
"-  c #04132C",
";  c #0A142C",
":  c #0B192D",
">  c #0B192B",
",  c #12162B",
"<  c #141B2C",
"1  c #1B1B2C",
"2  c #131726",
"3  c #061531",
"4  c #091631",
"5  c #071833",
"6  c #0C1B34",
"7  c #0D1D39",
"8  c #111731",
"9  c #121C33",
"0  c #191D32",
"q  c #121E3A",
"w  c #251E26",
"e  c #1C212D",
"r  c #0F203A",
"t  c #142135",
"y  c #1B2234",
"u  c #14233B",
"i  c #1A253B",
"p  c #16283E",
"a  c #1C293D",
"s  c #1C2836",
"d  c #2C252B",
"f  c #2A272C",
"g  c #242433",
"h  c #242B3C",
"j  c #2A2B3B",
"k  c #272736",
"l  c #392D33",
"z  c #322D3A",
"x  c #392E38",
"c  c #342C33",
"v  c #2B313D",
"b  c #35323E",
"n  c #3C333A",
"m  c #3A3236",
"M  c #34282C",
"N  c #432F37",
"B  c #44343C",
"V  c #48373D",
"C  c #162641",
"Z  c #1A2741",
"A  c #162840",
"S  c #1B2A43",
"D  c #232D42",
"F  c #282E46",
"G  c #263346",
"H  c #2C3244",
"J  c #24334A",
"K  c #2D394E",
"L  c #2D344D",
"P  c #333544",
"I  c #343A45",
"U  c #3B3944",
"Y  c #353B4C",
"T  c #393849",
"R  c #2D3D54",
"E  c #323D52",
"W  c #383F57",
"Q  c #443B43",
"!  c #4C3C43",
"~  c #4C3E4A",
"^  c #4A3843",
"/  c #523B44",
"(  c #3E414D",
")  c #364155",
"_  c #3B4353",
"`  c #35445B",
"'  c #3A475C",
"]  c #3C4B62",
"[  c #4D4344",
"{  c #4C444B",
"}  c #45434C",
"|  c #524146",
" . c #53464C",
".. c #5A444E",
"X. c #544A4D",
"o. c #5B4B4E",
"O. c #424553",
"+. c #444A5A",
"@. c #4C4C5B",
"#. c #4A4854",
"$. c #554B53",
"%. c #5C4C53",
"&. c #524D5A",
"*. c #5B4B55",
"=. c #4C525D",
"-. c #5D5156",
";. c #53525E",
":. c #5D535B",
">. c #5A555B",
",. c #624A53",
"<. c #635355",
"1. c #64545B",
"2. c #66595D",
"3. c #6D5A5D",
"4. c #6A535B",
"5. c #685557",
"6. c #4C5566",
"7. c #5A5563",
"8. c #545A65",
"9. c #5D5964",
"0. c #555B6A",
"q. c #575867",
"w. c #4B5970",
"e. c #4D556F",
"r. c #645A62",
"t. c #6B5D63",
"y. c #665E69",
"u. c #675A65",
"i. c #735D63",
"p. c #755F6A",
"a. c #556277",
"s. c #6C626B",
"d. c #666169",
"f. c #726165",
"g. c #7A6367",
"h. c #72646B",
"j. c #7B656B",
"k. c #7C696C",
"l. c #74686B",
"z. c #6C6B7A",
"x. c #686A75",
"c. c #7C6671",
"v. c #746A73",
"b. c #7B6C73",
"n. c #7B6E79",
"m. c #756A74",
"M. c #75737D",
"N. c #7D737B",
"B. c #69717C",
"V. c #836B73",
"C. c #886E79",
"Z. c #847475",
"A. c #82747B",
"S. c #8D737B",
"D. c #89787B",
"F. c #92797E",
"G. c #806D6F",
"H. c #6A7283",
"J. c #747984",
"K. c #7B7985",
"L. c #847982",
"P. c #897B84",
"I. c #957D86",
"U. c #7D838F",
"Y. c #7C8BA2",
"T. c #8D828B",
"R. c #82858E",
"E. c #95828C",
"W. c #9A848D",
"Q. c #968486",
"!. c #898B97",
"~. c #858C9A",
"^. c #888996",
"/. c #9C8B93",
"(. c #998991",
"). c #8B919D",
"_. c #93939D",
"`. c #9E929E",
"'. c #A48D94",
"]. c #A4979C",
"[. c #A0878D",
"{. c #969AA5",
"}. c #8F95A1",
"|. c #A89FA4",
" X c #9DA2AC",
".X c #99A7B9",
"XX c #A7A2A9",
"oX c #A6AAB4",
"OX c #B3ADB1",
"+X c #B4B7BE",
"@X c #B9B0B5",
"#X c #AFB4BA",
"$X c #C4B9BD",
"%X c #B2B7C4",
"&X c #B8BBC4",
"*X c #AAB9D0",
"=X c #C1BBC5",
"-X c #BDC3CC",
";X c #BDC6D1",
":X c #C4C5CB",
">X c #CFC7CC",
",X c #CBCBD5",
"<X c #C6CBD5",
"1X c #D3CED7",
"2X c #CED4DA",
"3X c #D3D4DC",
"4X c #D8D8DC",
"5X c #D2D7E1",
"6X c #DADAE3",
"7X c #DAD7E0",
"8X c #CBDAF1",
"9X c #DFE1E6",
"0X c #E7E6EE",
"qX c #ECEDF3",
"wX c #E5EBF5",
"eX c #F4EEF4",
"rX c #EDF2FC",
"tX c #F4F6FC",
"yX c #FAF6FA",
"uX c #F6FBFE",
"iX c #FEFEFA",
"pX c #FAFAFE",
"aX c #FBFDFF",
"sX c #FFFFFD",
"dX c white",
"fX c #FEFEFF",
"gX c #FDFDFE",
"hX c #FEFFFE",
"jX c #F7F3F5",
/* pixels */
"dXdXdXdXdXdXdXdXdXdXdXdXdXdXdXdXiXiXdXdXdXdXpXpXtXpXtXoXx.!.).%XoX~.K.^._.{.7XdX6X,XaXdXdXdXdXdXdXdXdXdXdXdXdXdXdXdXdXdXdXdXdXdX",
"dXdXdXdXdXdXdXdXdXdXdXdXdXdXdXdXdXiXdXyXdXdXdX7X{.{.^.I j O.T +.@.Y P I +.O.oX6X_.,XdXuXdXdXdXyXdXdXdXdXdXdXdXdXdXdXdXdXdXdXdXdX",
"dXdXdXdXdXdXdXdXdXdXdXdXdXdXdXdXyXdXpXdXdXdXtX,X;.P T k y y y h h H D h H h +.6.@.).<XpXaXdXiXdXdXdXdXdXdXdXdXdXdXdXdXdXdXdXdXdX",
"dXdXdXdXdXdXdXdXdXdXdXdXdXdXdXdXdXdXdXdX0X7XK.( h h h h h y , h y ; 9 a G G 0 a _ %X^.5XdXpXdXiXdXdXdXdXdXdXdXdXdXdXdXdXdXdXdXdX",
"dXdXdXdXdXdXdXdXdXdXdXdXdXdXdXdXdXdXpXdX+X8.P y 0 h i y D D D G J 7 Z u J i 9 G E ) 8.}.qXdXdXiXdXdXdXdXdXdXdXdXdXdXdXdXdXdXdXdX",
"dXdXdXdXdXdXdXdXdXdXdXdXdXdXdXdXdXdXdX-X;.j y h G y t i a 9 a t Z Z S S Z u 5 t a 0 H.}.{.dXdXdXdXdXdXdXdXdXdXdXdXdXdXdXdXdXdXdX",
"dXdXdXdXdXdXdXdXdXdXdXdXdXdXdXdXdXdXqXR.v h y D a S t t D 6 ; 9 S u 4 a t u 4 i Z h y H.tXdXdXdXdXdXdXdXdXdXdXdXdXdXdXdXdXdXdXdX",
"dXdXdXdXdXdXdXdXdXdXdXdXdXdXdXdXdXaX:Xv < < t a u 7 - Z u 9 ; 9 8 9 a 9 9 a 9 9 a y i h  XdXaXdXdXdXdXdXdXdXdXdXdXdXdXdXdXdXdXdX",
"dXdXdXdXdXdXdXdXdXdXdXdXdXdXdXdXdXpX_.j < < t 7 u 6 C C 6 q ; 9 0 , 0 y < 0 y 9 0 i y h v  XaXdXdXdXdXdXdXdXdXdXdXdXdXdXdXdXdXdX",
"dXdXdXdXdXdXdXdXdXdXdXdXdXdXdXdXyXXXI 1 < t - 7 7 5 q C q , , , 1 g b k j H h H k H y y ( ( OXaXdXdXdXdXdXdXdXdXdXdXdXdXdXdXdXdX",
"dXdXdXdXdXdXdXdXdXdXdXdXdXdXdXdXtX!.T < : ; 4 6 3 3 q q 9 , j P z k Q #.y.9.T 7.q.@.1 O +.XXx.9XdXdXdXdXdXdXdXdXdXdXdXdXdXdXdXdX",
"dXdXdXdXdXdXdXdXdXdXdXdXdXdXdXdXaXR.e , : 5 5 3 3 3 4 ; 0 j #.7.#.~ :.h.v.$.Q K.z.7.7.&.g +XoX+XdXdXdXdXdXdXdXdXdXdXdXdXdXdXdXdX",
"dXdXdXdXdXdXdXdXdXdXdXdXdXdXdXdXqXx.2 0 9 - 3 $ 3 - ; , j @.:.y.y.y.m.N.N.h.s.T.T.L.^.,Xg _.#X3XpXdXdXdXdXdXdXdXdXdXdXdXdXdXdXdX",
"dXdXdXdXdXdXdXdXdXdXdXdXdXdXdXdX:X+.< > ; $ 3 3 3 - ; 0 T y.u.h.n.N.L.P.A.P.T.P.E.T.T.&Xz.:XaX2XyXyXdXdXdXdXdXdXdXdXdXdXdXdXdXdX",
"dXdXdXdXdXdXdXdXdXdXdXdXdXdXdXdXtX!., < - 6 - 5 3 ; 0 H $.s.f.b.n.&.n x B -.A.P.b. .c XX:XqXdXaXpXdXdXdXdXdXdXdXdXdXdXdXdXdXdXdX",
"dXdXdXdXdXdXdXdXdXdXdXdXdXdXdXdXdX<Xv = 6 $ - - 4 , y T y.u.i.f. .{ -.1.X.! 1.A.t.%.$.T.dXpXdXdXdXdXdXdXdXdXdXdXdXdXdXdXdXdXdXdX",
"dXdXdXdXdXdXdXdXdXdXdXdXdXdXdXdXaXuXB.= ; ; 4 ; 8 y j &.v.u.t.1.r.u.f.t.*...j.I.p...2.|.dXaXdXaXdXdXdXdXdXdXdXdXdXdXdXdXdXdXdXdX",
"dXdXdXdXdXdXdXdXdXdXdXdXdXdXdXdXdXaX-X= , = , 0 j g b r.b.k.f.<.| l N ..^ *.c.I.(.B w XXpXaXyXdXdXdXdXdXdXdXdXdXdXdXdXdXdXdXdXdX",
"dXdXdXdXdXdXdXdXdXdXdXdXdXdXdXdXdXuXdX=.o 2 = 1 1 g #.t.l.k.h.<.! B N | 1.c.V.E.'.(.[ ].dXdXdXdXdXdXdXdXdXdXdXdXdXdXdXdXdXdXdXdX",
"dXdXdXdXdXdXdXdXdXdXdXdXdXdXdXdXdXaXtX,XO P 9.&.&.Q  .f.Z.Z.Z.Z.b.f.k.Z.E.W.C.C.I.(././.jXyXdXaXdXdXdXdXdXdXdXdXdXdXdXdXdXdXdXdX",
"dXdXdXdXdXdXdXdXdXdXdXdXdXdXdXdXyXdXyXdXM.} 9.s.n.s.1.f.Z.Z.Z.D.W.W.'.'.'.S.i.S.(.I.W.XX>XdXyXdXdXdXdXdXdXdXdXdXdXdXdXdXdXdXdXdX",
"dXdXdXdXdXdXdXdXdXdXdXdXdXdXdXdXiXiXdXdX4X>.m.v.! t.i.3.f.k.Z.Q.Q.].'.[.I.V.,.j...<.%.A.OXyXdXdXdXdXdXdXdXdXdXdXdXdXdXdXdXdXdXdX",
"dXdXdXdXdXdXdXdXdXdXdXdXdXdXdXdXiXiXdXdXdXOXu.h.3.f.f.3.3.f.k.D.I.F.S.I.F.F.i./ N B 1.A.(.yXyXdXdXdXdXdXdXdXdXdXdXdXdXdXdXdXdXdX",
"dXdXdXdXdXdXdXdXdXdXdXdXdXdXdXdXiXiXiXdXdXjXA.l.D.G.j.<.,.t.f.k.g.g.g.j.V.C.S.j.c.c.P.D.T.eXdXdXdXdXdXdXdXdXdXdXdXdXdXdXdXdXdXdX",
"dXdXdXdXdXdXdXdXdXdXdXdXdXdXdXdXiXiXdXdXpXdX$XX.D.Z.k.3.<.2.t.t.t.3.k.V.g.g.p.4.../ %.b.].dXdXdXdXdXdXdXdXdXdXdXdXdXdXdXdXdXdXdX",
"dXdXdXdXdXdXdXdXdXdXdXdXdXdXdXdXiXdXdXdXdXyXpXl.t.D.t.%.1.%.t.2.f.i.k.k.,.V V V ^ V ! X.>XdXpXdXdXdXdXdXdXdXdXdXdXdXdXdXdXdXdXdX",
"dXdXdXdXdXdXdXdXdXdXdXdXdXdXdXdXdXdXaXdXdXdXdX@XM  .V ! 2.1.t.2.2.f.g.i.4.1.4.4.h.b.A.s.1XpXdXdXdXdXdXdXdXdXdXdXdXdXdXdXdXdXdXdX",
"dXdXdXdXdXdXdXdXdXdXdXdXdXdXdXdXdXjXdXdXdXqXeXyX$.X.-.X.X.! $.1.-.1.1.1.f.k.t.%.B l -.(.eXdXdXdXdXdXdXdXdXdXdXdXdXdXdXdXdXdXdXdX",
"dXdXdXdXdXdXdXdXdXdXdXdXdXdXdXdXdXdXdXdX4X4X,X3Xv.-.t.%.X.| { X.X.X.%.2.l.k.t.2.%.%.s.OXdXiXdXdXdXdXdXdXdXdXdXdXdXdXdXdXdXdXdXdX",
"dXdXdXdXdXdXdXdXdXdXdXdXdXdXdXdXiXyXdX9X} 3X7X_.{ r.s.t.%.^ B n Q [ { $.r.f.h.h.-.u.h.1XdXdXdXpXdXdXdXdXdXdXdXdXdXdXdXdXdXdXdXdX",
"dXdXdXdXdXdXdXdXdXdXdXdXdXdXdXdXdXiXdXM.f tXdX=Xn s.t.t.1.X.V l d c m V $.1.r.-.1. .n.jXdXdXdXdXdXdXdXdXdXdXdXdXdXdXdXdXdXdXdXdX",
"dXdXdXdXdXdXdXdXdXdXdXdXdXdXdXdXdXpXqXU J.6X9.  c y.u.f.1.o.! B m d d M c x x x x s.0XdXyXdXdXdXdXdXdXdXdXdXdXdXdXdXdXdXdXdXdXdX",
"dXdXdXdXdXdXdXdXdXdXdXdXdXdXdXdXdXtX<XJ.8.= 2 O k r.:.t.t.<.| | ^ B n M w w d + U 1XpXdXpXiXdXdXdXdXdXdXdXdXdXdXdXdXdXdXdXdXdXdX",
"dXdXdXdXdXdXdXdXdXdXdXdXdXdXdXdXaX<XU._ = = ,   1 } $.r.-.2.%. .~ ~ n n n } &.+ . 2 ^.rXdXdXdXdXdXdXdXdXdXdXdXdXdXdXdXdXdXdXdXdX",
"dXdXdXdXdXdXdXdXdXdXdXdXdXdXyXdXwXv o = Y = X o < T #.:.r.r.-.-.*.$.Q B m &.d.. . X   =.&X2XtXaXdXiXdXdXdXdXdXdXdXdXdXdXdXdXdXdX",
"dXdXdXdXdXdXdXdXdXdXdXdXdXdXdXdXB.o y < W D X . o k } @.x.9.d.9.$. . .[ V d.y.. , L Y Y e . J.aXdXdXdXdXdXdXdXdXdXdXdXdXdXdXdXdX",
"dXdXdXdXdXdXdXdXdXdXdXdXdXdXdXqXH * ; = D W F h G @.q.I e g M.L.r.%. .[ X.d.@.+ ; 9 i D ' t < ;XdXdXdXdXdXdXdXdXdXdXdXdXdXdXdXdX",
"dXdXdXdXdXdXdXdXdXdXdXdXdXdXdX3Xy t * - - F a.e.' E Y +.j X h +.7.r.{ [  .{ j X # 4 i i S i 6 .XaXdXdXdXdXdXdXdXdXdXdXdXdXdXdXdX",
"dXdXdXdXdXdXdXdXdXdXdXdXdXpXdX&X= a @ # @ J L X X # 9 L K a ; = k { $.X. .Q 2 X @ # 6 i J J 7 ~.uXdXdXdXdXdXdXdXdXdXdXdXdXdXdXdX",
"dXdXdXdXdXdXdXdXdXdXdXdXdXuXdXoX* 6 4 $ @ $ $ @ $ X * ; i ` E G + b &.{ Q U + X @ # - t i Z u ' tXpXdXdXdXdXdXdXdXdXdXdXdXdXdXdX",
"dXdXdXdXdXdXdXdXdXdXdXdXtXaXaXU.o 6 7 - $ # @ # # $ ) ] 5 p S G 0 v } {  .z & X $ @ $ 9 6 t ` K  XaXpXdXdXdXyXdXdXdXdXdXdXdXdXdX",
"dXdXdXdXdXdXdXdXdXdXdXaXaXuX}.s * 7 5 5 $ @ $ @ X ` w.] R p 7 S a h &.:.$.b + # - @ @ ; ; ; D G _ uXuXdXaXaXdXiXdXdXdXdXdXdXdXdX",
"dXdXdXdXdXdXdXdXdXaXdXaX5X=.= t 6 - $ - ; $ ; 9 X +.a.K R ' ] R a y ;.s.:.z , X - - @ ; , $ $ - . 8.wXuXtXdXdXdXdXdXdXdXdXdXdXdX",
"dXdXdXdXdXdXdXdXyXdXaX%X2 = 0 t 6 - 4 - ; - 9 w.' G ) : $ Z J p t y x.s.r.~ 1 X $ - X $ ; ; @ @ o = h ;XaXaXuXdXdXdXdXdXdXdXdXdX",
"dXdXdXdXdXdXdXdXdXaXrXh o = * - - - 6 ; ; $ - ] ` * $ X - C 4 4 - _ M.h.t.7.w o # $ $ ; ; ; $ $ @ t = h 5XaXaXdXdXdXdXdXdXdXdXdX",
"dXdXdXdXdXdXdXdXaXuXoX= a : 4 - $ $ $ ; ; $ - $ X - ; o $ 7 $ 4 * v K.b.p.u.z X @ @ ; 0 ; @ @ - 4 : 6 = 0.aXaXdXdXdXdXdXdXdXdXdX",
"dXdXdXdXdXdXdXdXaXrX+.< t u 3 6 # $ # $ # # 6 - 6 6 @ o - 6 % $ * . v.L.c.n.j o $ @ @ # @ X $ r 3 - : 9 =  XdXdXdXdXdXdXdXdXdXdX",
"dXdXdXdXdXdXdXdXaX0.o t 7 6 7 - - $ @ @ $ # @ $ ; $ # ; 8 ; # @ o < b `.T.K.P o ; - $ X @ # - 6 6 - 5 6 9 h wXdXdXdXdXdXdXdXdXdX",
"dXdXdXiXdXdXdXaX~.* t 7 5 3 3 - - - $ $ # @ @ @ @ # % % # @ @ @ o y O.O.z.~.h # ; * $ * $ - 6 6 6 6 - 4 S . ).uXpXdXiXiXdXiXdXdX",
"dXdXiXdXdXyXdX2Xy ; 5 $ 3 - - - - - - $ $ # # # @ @ @ @ X X @ @ # o _ y . h y * 9 - * - - 5 7 7 5 7 3 - u ; s rXdXyXiXiXiXdXdXdX",
"dXdXiXdXdXaXaXx.o t 6 5 - $ - $ - - - - - $ $ $ $ # @ @ X @ @ @ X . E 6.X X # t t - $ - - 5 7 7 q u 6 - 7 6 . {.dXdXiXiXdXdXpXdX",
"pXdXdXdXpXdX3X= < 7 5 6 $ $ - $ - - - - - - $ $ $ $ # $ # $ @ @ $ . y H.* # : i t - $ - 3 5 6 7 u q 6 - 3 6 # h qXdXdXdXiXdXdXdX",
"dXdXdXdXpXdXJ.o 9 7 6 - - - $ - - - - - - - $ $ $ $ $ - $ $ $ $ # $ ; a.D # ; t t - - 3 5 5 7 7 u u 7 6 - u o o J.dXyXdXpXyXdXdX",
"iXiXdXdXdX0Xg = 9 u 6 - 3 $ $ - - - - - - - - - - - - - $ $ $ - ; X X K ) . * a t - - 5 6 6 7 r u u Z 5 - u @ : , %XdXpXdXdXdXdX",
"iXiXaXdXaX!.o ; q 3 3 3 - $ - - - - - - - - - - - - - - - - - - @ ; $ - w.5 $ Z p - - 5 6 6 7 r u u C 3 - 6 - - i H rXuXdXdXdXyX",
"iXiXaXaXrXh * 9 7 6 7 - $ - # * - - - - - - - - - - - - - - - - - $ @ @ ` Z * 7 p 5 - 5 6 7 u r u a A u - 7 $ $ i = B.aXuXpXdXdX",
"iXdXyXaX{.X 6 9 u 7 3 3 - - $ * - - - - - - - - - - - - - - - - - - $ @ S R $ i Z - - 5 7 r 7 u u p Z p 3 7 3 $ 9 a = -XuXdXyXdX",
"iXdXaXaXY # 6 q q 7 3 3 - $ $ $ $ - - - - - - - - - - - - - - - - $ - X - w.- i u 6 - 7 5 6 r 7 u p A p 3 7 5 # 6 i = 6.aXaXdXdX",
"dXdXdX;Xo : 6 C 7 5 3 - - - $ $ $ $ - - - - - - - - - - - - - - - 4 $ - @ ` t 5 Z 6 - 6 6 7 u u u A C p - 5 7 # 5 u : 2 3XaXdXiX",
"dXpXdXB.o 6 7 C 7 3 - - - - - $ $ $ $ - - - - - - - - - - - - - - - - - @ S J ; p 4 - 5 7 7 7 u u A A Z 4 4 u $ - 7 t = ~.dXpXdX",
"dXpXtXP o 6 p r 6 3 - - - - - $ $ # # $ - - - - - - - - 3 3 - - 4 - - # # 9 ` 5 p 6 - - 6 7 7 7 u C Z S 5 - u - - 7 6 o 8.aXpXdX",
"pXdX,X= > u Z 6 6 5 3 - - - - $ $ # # # $ - - - - - 3 3 3 3 3 3 - - - - - # J : 6 7 - - - # 5 p u p S S 7 - u - - 6 : * H rXdXdX",
"pXdX{.. i A r 5 5 5 4 - - 3 3 - # # # # $ - - - - - 3 3 3 3 3 3 4 $ 7 4 * @ - 7 i : $ ; S ] a 5 u u S S t - 7 5 - 4 : t < 3XdXiX",
"pXdXJ.o t p - 5 3 5 4 - - 4 5 3 # # # $ $ - - - - - - 3 3 3 3 - 3 5 - $ - $ u t $ R Y..X*X8Xw.4 u 7 S Z t ; 5 6 - - - > 2 &XdXdX"
};
