/* XPM */
static char *_6abdd1ca5b4402bad02a71a05322a82fe5VINGSiUsFmh11[] = {
/* columns rows colors chars-per-pixel */
"64 64 214 2 ",
"   c #00581B",
".  c #00611D",
"X  c #005D29",
"o  c #026C23",
"O  c #036B2C",
"+  c #04672B",
"@  c #007724",
"#  c #01742C",
"$  c #026D32",
"%  c #016B3A",
"&  c #056B39",
"*  c #027334",
"=  c #017A35",
"-  c #02753B",
";  c #0A743B",
":  c #017A3B",
">  c #09793D",
",  c #0C7437",
"<  c #047640",
"1  c #027B41",
"2  c #0B7C43",
"3  c #0F784F",
"4  c #087947",
"5  c #127C45",
"6  c #197E47",
"7  c #1B7748",
"8  c #137C4B",
"9  c #197A46",
"0  c #0B7E55",
"q  c #1F7F51",
"w  c #137D53",
"e  c #247D4A",
"r  c #227F52",
"t  c #02823C",
"y  c #0C823F",
"u  c #038344",
"i  c #0B8345",
"p  c #0E864D",
"a  c #0C894B",
"s  c #058847",
"d  c #13824A",
"f  c #1B844D",
"g  c #158A4E",
"h  c #1D8A4E",
"j  c #138444",
"k  c #1A8353",
"l  c #1D8D52",
"z  c #1E885A",
"x  c #168952",
"c  c #1E9356",
"v  c #1B9159",
"b  c #28874F",
"n  c #268B4F",
"m  c #23844E",
"M  c #248553",
"N  c #2E8752",
"B  c #248C55",
"V  c #2C8A55",
"C  c #238C5A",
"Z  c #2B8C5A",
"A  c #328754",
"S  c #249256",
"D  c #24935B",
"F  c #2D935C",
"G  c #289559",
"H  c #349255",
"J  c #3C925E",
"K  c #33955C",
"L  c #2F8F62",
"P  c #238E62",
"I  c #338D62",
"U  c #259561",
"Y  c #2F9168",
"T  c #2A9964",
"R  c #349365",
"E  c #3D966C",
"W  c #389769",
"Q  c #2C9A71",
"!  c #399F77",
"~  c #379972",
"^  c #3DA271",
"/  c #31A372",
"(  c #428E64",
")  c #479B6C",
"_  c #429C73",
"`  c #4A9E77",
"'  c #4C9E78",
"]  c #459773",
"[  c #579F7A",
"{  c #509C75",
"}  c #43A06B",
"|  c #4AA37A",
" . c #55A47C",
".. c #5CA57C",
"X. c #53AB76",
"o. c #5BAC82",
"O. c #5BAF8D",
"+. c #57B580",
"@. c #5EB892",
"#. c #63AB84",
"$. c #6BAB82",
"%. c #65AE8B",
"&. c #68AE89",
"*. c #61A587",
"=. c #73AD8D",
"-. c #63B28B",
";. c #6FB28F",
":. c #65B786",
">. c #73B48C",
",. c #6AAF90",
"<. c #6DB494",
"1. c #6DBB93",
"2. c #6FB698",
"3. c #6DBA98",
"4. c #73B693",
"5. c #73BD96",
"6. c #71BC9C",
"7. c #7CBB9B",
"8. c #78B398",
"9. c #7FC0A0",
"0. c #81B797",
"q. c #86B799",
"w. c #85BD9C",
"e. c #88BE9F",
"r. c #8CB79C",
"t. c #82BFA1",
"y. c #8CB7A5",
"u. c #9CBEAE",
"i. c #8EC29C",
"p. c #8DC5A5",
"a. c #8BC2AA",
"s. c #82C5A4",
"d. c #94C4AE",
"f. c #94CAAD",
"g. c #9BCAAD",
"h. c #97C3A8",
"j. c #97C8B5",
"k. c #98C5B2",
"l. c #9ED2BA",
"z. c #A9C7AD",
"x. c #AECEB7",
"c. c #A7CCBA",
"v. c #A7D3B4",
"b. c #AFD7BD",
"n. c #A8D7BB",
"m. c #B1D7BE",
"M. c #BBD5BC",
"N. c #AECFC4",
"B. c #ADD8C7",
"V. c #ABD8C3",
"C. c #B7D7C8",
"Z. c #BDDCCD",
"A. c #B8DBC9",
"S. c #BFD9D6",
"D. c #B4DFD5",
"F. c #BFE8D6",
"G. c #BCE0D4",
"H. c #C4D6CC",
"J. c #CEDDCB",
"K. c #C2DCCC",
"L. c #C2DDD2",
"P. c #CADCD5",
"I. c #CCDED9",
"U. c #D6DCD8",
"Y. c #C7E1C6",
"T. c #D3E2CB",
"R. c #C5E2D5",
"E. c #CCE2D5",
"W. c #C2EBD5",
"Q. c #C6E1D8",
"!. c #CDE0D9",
"~. c #C8E9D8",
"^. c #D2E5D5",
"/. c #D3E3DC",
"(. c #D5EADC",
"). c #DAE4D5",
"_. c #E3F5DD",
"`. c #CDE8E1",
"'. c #DAE6E4",
"]. c #D9EBE8",
"[. c #DAF4E1",
"{. c #DDF5EB",
"}. c #D3F2E5",
"|. c #DDF6F3",
" X c #E3ECE4",
".X c #EAEDE5",
"XX c #E5EEEB",
"oX c #E8EEEC",
"OX c #E2F2E4",
"+X c #EBF1EF",
"@X c #EEFFEF",
"#X c #E6F4E8",
"$X c #F6F7EF",
"%X c #EEFEF4",
"&X c #EEFDF9",
"*X c #ECF2F2",
"=X c #FDF6F7",
"-X c #F3FFF3",
";X c #FEFDF5",
":X c #FEF7FD",
">X c #F5FEFD",
",X c #FFFAFA",
"<X c #FFFDFB",
"1X c #FFFBFF",
"2X c #FDFDFD",
"3X c #FEFCFD",
"4X c #FFFDFE",
"5X c #FFFDFF",
"6X c #FEFEFE",
"7X c #FFFEFF",
"8X c #FEFFFF",
"9X c white",
"0X c #FDFFFD",
"qX c #FFFFFF",
/* pixels */
"9X9X9X9X9X9X9X9X9X9X9X9X9X9X9X9X9X9X9X9X9X9X9X9X9X9X9X9X9X9X9X9X9X9X9X9X9X9X9X9X9X9X9X9X9X9X9X9X9X9X9X9X9X9X9X9X9X9X9X9X9X9X9X9X",
"9X9X9X9X9X9X9X9X9X9X9X9X9X9X9X9X9X9X9X9X9X9X9X9X9X9X9X9X9X9X9X9X9X9X9X9X9X9X9X9X9X9X9X9X9X9X9X9X9X9X9X9X9X9X9X9X9X9X9X9X9X9X9X9X",
"9X9X9X9X9X9X9X9X9X9X9X9X9X9X9X9X9X9X9X9X9X9X9X9X9X9X9X9X9X9X9X9X9X9X9X9X9X9X9X9X9X9X9X9X9X9X9X9X9X9X9X9X9X9X9X9X9X9X9X9X9X9X9X9X",
"9X9X9X9X9X9X9X9X9X9X9X9X9X9X9X9X9X9X9X9X9X9X9X9X9X9X9X9X9X9X9X9X9X9X9X9X9X9X9X9X9X9X9X9X9X9X9X9X9X9X9X9X9X9X9X9X9X9X9X9X9X9X9X9X",
"9X9X9X9X9X9X9X9X9X9X9X9X9X9X9X9X9X9X9X9X9X9X9X9X9X9X9X9X9X9X9X9X9X9X9X9X9X9X9X9X9X9X9X9X9X9X9X9X9X9X9X9X9X9X9X9X9X9X9X9X9X9X9X9X",
"9X9X9X9X9X9X9X9X9X9X9X9X9X9X9X9X9X9X9X9X9X9X9X9X9X9X9X9X9X9X9X9X9X9X9X9X9X9X9X9X9X9X9X9X9X9X9X9X9X9X9X9X9X9X9X9X9X9X9X9X9X9X9X9X",
"9X9X9X9X9X9X9X9X9X9X9X9X9X9X9X9X9X9X9X9X9X9X9X9X9X9X9X9X9X9X9X9X9X9X9X9X9X9X9X9X9X9X9X9X9X9X9X9X9X9X9X9X9X9X9X9X9X9X9X9X9X9X9X9X",
"9X9X9X9X9X9X9X9X9X9X9X9X9X9X9X9X9X9X9X9X9X9X9X9X9X9X9X9X9X9X9X9X9X9X9X9X9X9X9X9X9X9X9X9X9X9X9X9X9X9X9X9X9X9X9X9X9X9X9X9X9X9X9X9X",
"9X9X9X9X9X9X9X9X9X9X9X9X9X9X9X9X9X9X9X9X9X9X9X9X9X9X9X9X9X9X9X9X9X9X9X9X9X9X9X9X9X9X9X9X9X9X9X9X9X9X9X9X9X9X9X9X9X9X9X9X9X9X9X9X",
"9X9X9X9X9X9X9X9X9X9X9X9X9X9X9X9X9X9X9X9X9X9X9X9X9X9X9X9X9X9X9X9X9X9X9X9X9X9X9X9X9X9X9X9X9X9X9X9X9X9X9X9X9X9X9X9X9X9X9X9X9X9X9X9X",
"9X9X9X9X9X9X9X9X9X9X9X9X9X9X9X9X9X9X9X9X9X9X9X9X9X9X9X9X9X9X9X9X9X9X9X9X9X9X9X9X9X9X9X9X9X9X9X9X9X9X9X9X9X9X9X9X9X9X9X9X9X9X9X9X",
"9X9X9X9X9X9X9X9X9X9X9X9X9X9X9X9X9X9X9X9X9X9X9X9X9X9X9X9X9X9X9X9X9X9X9X9X9X9X9X9X9X9X9X9X9X9X9X9X9X9X9X9X9X9X9X9X9X9X9X9X9X9X9X9X",
"9X9X9X9X9X9X9X9X9X9X9X9X9X9X9X9X9X9X9X9X9X9X9X9X9X9X9X9X9X9X9X9X9X9X9X9X9X9X9X9X9X9X9X9X9X9X9X9X9X9X9X9X9X9X9X9X9X9X9X9X9X9X9X9X",
"9X9X9X9X9X9X9X9X9X9X9X9X9X9X9X9X9X9X9X9X9X9X9X9X9X9X9X9X9X9X9X9X9X9X9X9X9X9X9X9X9X9X9X9X9X9X9X9X9X9X9X9X9X9X9X9X9X9X9X9X9X9X9X9X",
"9X9X9X9X9X9X9X9X9X9X9X9X9X9X9X9X9X9X9X9X9X9X9X9X9X9X9X9X9X9X9X9X9X9X9X9X9X9X9X9X9X9X9X9X9X9X9X9X9X9X9X9X9X9X9X9X9X9X9X9X9X9X9X9X",
"9X9X9X9X9X9X9X9X9X9X9X9X9X9X9X9X9X9X9X9X9X9X9X9X9X9X9X9X9X9X9X9X9X9X9X9X9X9X9X9X9X9X9X9X9X9X9X9X9X9X9X9X9X9X9X9X9X9X9X9X9X9X9X9X",
"9X9X9X9X9X9X9X9X9X9X9X9X9X9X9X9X9X9X9X9X9X9X9X9X9X9X9X9X9X9X9X9X9X9X9X9X9X9X9X9X9X9X9X9X9X9X9X9X9X9X9X9X9X9X9X9X9X9X9X9X9X9X9X9X",
"9X9X9X9X9X9X9X9X9X9X9X9X9X9X9X9X9X9X9X9X9X9X9X9X9X9X9X9X9X9X9X9X9X9X9X9X9X9X9X9X9X9X9X9X9X9X9X9X9X9X9X9X9X9X9X9X9X9X9X9X9X9X9X9X",
"9X9X9X9X9X9X9X9X9X9X9X9X9X9X9X9X9X9X9X9X9X9X9X9X9X9X9X9X9X9X9X9X9X9X9X9X9X9X9X9X9X9X9X9X9X9X9X9X9X9X9X9X9X9X9X9X9X9X9X9X9X9X9X9X",
"9X9X9X9X9X9X9X9X9X9X9X9X9X9X9X9X9X9X9X9X9X9X9X9X9X9X9X9X9X9X9X9X9X9X9X9X9X9X9X9X9X9X9X9X9X9X9X9X9X9X9X9X9X9X9X9X9X9X9X9X9X9X9X9X",
"9X9X9X9X9X9X9X9X9X9X9X9X9X9X9X9X9X9X9X9X9X9X9X9X9X9X9X9X9X9X9X9X9X9X9X9X9X9X9X9X9X9X9X9X9X9X9X9X9X9X9X9X9X9X9X9X9X9X9X9X9X9X9X9X",
"9X9X9X9X9X9X9X9X9X9X3X3X9X9X9X9X9X9X9X9X9X9X9X9X9X9X9X3X9X9X9X9X9X9X9X9X9X9X9X9X9X9X9X9X9X9X9X9X9X9X9X9X9X9X9X9X9X9X9X9X9X9X9X9X",
"9X9X9X9X9X9X9X9X9X9X9X9X9X9X9X9X9X9X9X9X9X9X9X9X9X9X9X9X9X9X9X9X9X9X9X9X9X9X9X9X9X9X9X9X9X9X9X9X9X9X9X9X9X9X9X9X9X9X9X9X9X9X9X9X",
"9X9X9X9X9X9X9X9X+X+XoXoXoXoXoXoXoXoXoXoXoXoXoXoXoXoXoXoXoXoXoXoXoXoXoXoXoXoXoXoXoXoXoXoXoXoXoXoXoXoXoXoXoXoXoXoX9X9X9X9X9X9X9X9X",
"9X9X9X9X9X9X9X9XI.B V U V N B B B Z B B D V N v D C V c v ) n C C z C l Z Y P M E F l N S F D V Z N S C B S M j.9X9X9X9X9X9X9X9X",
"9X9X9X9X9X9X9X9XR.i * : = t - - ; = ; > - : = : * 1 * ; - S * 8.^.E.L.E.v.X.M.l.M > * > > = $ - : ; 2 % > : * k.9X9X9X9X9X9X9X9X",
"9X9X9X9X9X9X9X9XP.h * 1 : : = : < t > * < = = < - - : - 1 G = l.>X9X9X>Xo.. $.].l i : - B ; 2 t : = 2 p.8 = > f.9X9X9X9X9X9X9X9X",
"9X9X9X9X9X9X9X9XW.2 2 z 4 d a 5 w = t k x y h 4 k d i r 4 H O k.>XZ.n.Z.#.: 4.'.m a O _ -X5.$ t 5 t ; -XV.; > f.9X9X9X9X9X9X9X9X",
"9X9X9X9X9X9X9X9X!.; &.>X-X-Xp. .9X} 8 ,X5.X.%X .$X%X-X;X` n * V.m.3 *.: ( p.<XR.l 5 ` >X9X,X7.$ : = d OX=Xb.- g.9X9X9X9X9X9X9X9X",
"9X9X9X9X9X9X9X9X/.u #.9Xd.g...1 9Xv.<.,Xe  .9X^ h.|.&Xx.C h * 7.J  X(.2 O Z ,X`.v 5 W.<X=X3X>X7.- ; u {.3X,X1.w.9X9X9X9X9X9X9X9X",
"9X9X9X9X9X9X9X9XE.- ;.>Xw X < $ d.;X{.A.+ %.:XS   L.`.$ = F * 1.).;X) O b k / | B u r  X9X>X>X<X<.; i OX>X<X=.a.9X9X9X9X9X9X9X9X",
"9X9X9X9X9X9X9X9X^.; -.9X)._.+.# I -X9X{ o O.:XH @ H.{.# = D % z.9Xb.# * l.Z.7.$.l 2 * k OX9X2X9X<X>.> .X9X>X6.y.9X9X9X9X9X9X9X9X",
"9X9X9X9X9X9X9X9X/.: @.9X/.OX%.$ _ ;X3X#.# *.9XH o S.{.$ 2 D O f.>XN.= : %.<X>X/.B i : * M [.>X>X3X>Xy.}.>X9X8.e.9X9X9X9X9X9X9X9X",
"9X9X9X9X9X9X9X9XJ.= #.>X7 + * # B.#XXX(.# -.9XF o D.}.= u D O d.<X Xe i.: #.:XW.v 2 u u * M .X<X>X9X<X9X9X>X3.e.9X9X9X9X9X9X9X9X",
"9X9X9X9X9X9X9X9X/.: =.9X<.o.^ g 9X0.<.<XA  .9XU O H. X: - F $ c.;X~.- g.T.; d.(.f : * - t $ 5 ).>X,X<X,X=X>X<.w.9X9X9X9X9X9X9X9X",
"9X9X9X9X9X9X9X9X`.1 2.:X>X<XC.t.2XV q >Xv...;XL * K.[.* 2 V J 3.E 0 ` F.;X6 H.}.g ) R I ( Q R | *X>X&X>X9X9X6.e.9X9X9X9X9X9X9X9X",
"9X9X9X9X9X9X9X9X^.t f ] K V Z Z Y t : R Z i W 8 * I R * 1 V :.~ 1.'.9X:Xa.8 >XG.6 | -X,X9X9X=X>X3X9X9X3X3X9X8.r.9X9X9X9X9X9X9X9X",
"9X9X9X9X9X9X9X9XJ.j # - * * 1 , 1 = = - > = : - u = : u 1 F 2 K.>X9X<X9XQ 4.>X/.B 1 E >X>X9X>X>X9X=X>X9X3X>X6.s.9X9X9X9X9X9X9X9X",
"9X9X9X9X9X9X9X9XU.i > - i : - : - * t * 1 > = 1 : > - - 2 f i H.=X XY.9.,.OX>Xh.p d % _ -X,X,X9X<X<X%X>X<X<Xw.q.9X9X9X9X9X9X9X9X",
"9X9X9X9X9X9X9X9XQ.s 6 k i i f p a d d d p s e p k y s k u K Z ! Q I t : R E E j D M f 2 T  . .` ` [ ' ' |  .C p.9X9X9X9X9X9X9X9X",
"9X9X9X9X9X9X9X9X]./.P.I.!.I.P.!.Q.Q.Q.Q.Q.Q.Q.Q.R.R.R.R.R.R.L.L.Z.L.R.R.L.L.L.R.L.R.R.L.L.Z.Z.Z.A.C.Z.Z.c.u.c.W.9X9X9X9X9X9X9X9X",
"9X9X9X9X9X9X9X9X9X9X>X9X9X>X>X>X9X9X9X9X9X9X9X9X9X9X9X9X9X9X9X9X9X9X9X9X9X9X9X9X9X9X9X9X9X9X9X9X9X,X9X9X9X<X9X9X9X9X9X9X9X9X9X9X",
"9X9X9X9X9X9X9X9X3X3X9X9X9X9X9X9X9X9X9X9X9X9X9X9X3X9X3X9X9X9X9X9X9X9X9X9X9X9X9X9X3X9X9X9X9X9X9X9X9X9X9X9X9X9X9X>X9X9X9X9X9X9X9X9X",
"9X9X9X9X9X9X9X9X9X9X9X9X9X9X9X9X9X9X9X9X9X9X9X9X9X>X9X9X9X9X>X9X9X9X>X>X9X9X9X>X9X9X9X9X>X>X>X9X9X9X9X9X9X>X>X9X9X9X9X9X9X9X9X9X",
"9X9X9X9X9X9X9X9X9X9X9X>X9X9X9X9X9X9X9X9X9X9X9X9X9X9X9X9X9X9X9X9X9X9X9X9X9X9X9X9X9X9X9X9X9X9X9X9X9X9X3X9X9X9X9X9X9X9X9X9X9X9X9X9X",
"9X9X9X9X9X9X9X9X9X9X9X9X9X9X9X9X9X9X9X9X9X9X9X9X9X9X9X9X9X9X9X9X9X9X9X9X9X9X9X9X9X9X9X9X9X9X9X9X9X9X9X9X9X9X9X9X9X9X9X9X9X9X9X9X",
"9X9X9X9X9X9X9X9X9X9X9X9X9X9X9X9X9X9X9X9X9X>X9X9X9X9X9X9X9X9X9X9X9X9X9X9X9X9X9X9X9X>X>X>X9X9X9X9X9X9X9X9X9X9X9X9X9X9X9X9X9X9X9X9X",
"9X9X9X9X9X9X9X9X9X9X9X9X9X>X>X9X9X9X9X9X9X9X9X9X9X9X9X9X9X9X9X9X9X9X9X9X9X9X9X9X9X9X9X9X9X9X9X9X9X9X9X9X9X9X9X9X9X9X9X9X9X9X9X9X",
"9X9X9X9X9X9X9X9X9X9X9X9X9X9X9X9X9X9X9X9X9X9X9X9X9X9X9X9X9X9X9X9X9X9X9X9X9X9X9X9X9X9X9X9X9X9X9X9X9X9X9X9X9X9X9X9X9X9X9X9X9X9X9X9X",
"9X9X9X9X9X9X9X9X9X9X9X9X9X9X9X9X9X9X9X9X9X9X9X9X9X9X9X9X9X9X9X9X9X9X9X9X9X9X9X9X9X9X9X9X9X9X9X9X9X9X9X9X9X9X9X9X9X9X9X9X9X9X9X9X",
"9X9X9X9X9X9X9X9X9X9X9X9X9X9X9X9X9X9X9X9X9X9X9X9X9X9X9X9X9X9X9X9X9X9X9X9X9X9X9X9X9X9X9X9X9X9X9X9X9X9X9X9X9X9X9X9X9X9X9X9X9X9X9X9X",
"9X9X9X9X9X9X9X9X9X9X9X9X9X9X9X9X9X9X9X9X9X9X9X9X9X9X9X9X9X9X9X9X9X9X9X9X9X9X9X9X9X9X9X9X9X9X9X9X9X9X9X9X9X9X9X9X9X9X9X9X9X9X9X9X",
"9X9X9X9X9X9X9X9X9X9X9X9X9X9X9X9X9X9X9X9X9X9X9X9X9X9X9X9X9X9X9X9X9X9X9X9X9X9X9X9X9X9X9X9X9X9X9X9X9X9X9X9X9X9X9X9X9X9X9X9X9X9X9X9X",
"9X9X9X9X9X9X9X9X9X9X9X9X9X9X9X9X9X9X9X9X9X9X9X9X9X9X9X9X9X9X9X9X9X9X9X9X9X9X9X9X9X9X9X9X9X9X9X9X9X9X9X9X9X9X9X9X9X9X9X9X9X9X9X9X",
"9X9X9X9X9X9X9X9X9X9X9X9X9X9X9X9X9X9X9X9X9X9X9X9X9X9X9X9X9X9X9X9X9X9X9X9X9X9X9X9X9X9X9X9X9X9X9X9X9X9X9X9X9X9X9X9X9X9X9X9X9X9X9X9X",
"9X9X9X9X9X9X9X9X9X9X9X9X9X9X9X9X9X9X9X9X9X9X9X9X9X9X9X9X9X9X9X9X9X9X9X9X9X9X9X9X9X9X9X9X9X9X9X9X9X9X9X9X9X9X9X9X9X9X9X9X9X9X9X9X",
"9X9X9X9X9X9X9X9X9X9X9X9X9X9X9X9X9X9X9X9X9X9X9X9X9X9X9X9X9X9X9X9X9X9X9X9X9X9X9X9X9X9X9X9X9X9X9X9X9X9X9X9X9X9X9X9X9X9X9X9X9X9X9X9X",
"9X9X9X9X9X9X9X9X9X9X9X9X9X9X9X9X9X9X9X9X9X9X9X9X9X9X9X9X9X9X9X9X9X9X9X9X9X9X9X9X9X9X9X9X9X9X9X9X9X9X9X9X9X9X9X9X9X9X9X9X9X9X9X9X",
"9X9X9X9X9X9X9X9X9X9X9X9X9X9X9X9X9X9X9X9X9X9X9X9X9X9X9X9X9X9X9X9X9X9X9X9X9X9X9X9X9X9X9X9X9X9X9X9X9X9X9X9X9X9X9X9X9X9X9X9X9X9X9X9X",
"9X9X9X9X9X9X9X9X9X9X9X9X9X9X9X9X9X9X9X9X9X9X9X9X9X9X9X9X9X9X9X9X9X9X9X9X9X9X9X9X9X9X9X9X9X9X9X9X9X9X9X9X9X9X9X9X9X9X9X9X9X9X9X9X",
"9X9X9X9X9X9X9X9X9X9X9X9X9X9X9X9X9X9X9X9X9X9X9X9X9X9X9X9X9X9X9X9X9X9X9X9X9X9X9X9X9X9X9X9X9X9X9X9X9X9X9X9X9X9X9X9X9X9X9X9X9X9X9X9X",
"9X9X9X9X9X9X9X9X9X9X9X9X9X9X9X9X9X9X9X9X9X9X9X9X9X9X9X9X9X9X9X9X9X9X9X9X9X9X9X9X9X9X9X9X9X9X9X9X9X9X9X9X9X9X9X9X9X9X9X9X9X9X9X9X",
"9X9X9X9X9X9X9X9X9X9X9X9X9X9X9X9X9X9X9X9X9X9X9X9X9X9X9X9X9X9X9X9X9X9X9X9X9X9X9X9X9X9X9X9X9X9X9X9X9X9X9X9X9X9X9X9X9X9X9X9X9X9X9X9X",
"9X9X9X9X9X9X9X9X9X9X9X9X9X9X9X9X9X9X9X9X9X9X9X9X9X9X9X9X9X9X9X9X9X9X9X9X9X9X9X9X9X9X9X9X9X9X9X9X9X9X9X9X9X9X9X9X9X9X9X9X9X9X9X9X"
};
