/* XPM */
static char *_9cd338331fa4be0f8264abe22f40c50UFloPQ28r9auRLm6[] = {
/* columns rows colors chars-per-pixel */
"64 64 219 2 ",
"   c #913B20",
".  c #8F4021",
"X  c #8B4428",
"o  c #954327",
"O  c #9C4327",
"+  c #9E472C",
"@  c #964A2B",
"#  c #9F4B2F",
"$  c #97452F",
"%  c #8C4D32",
"&  c #874E36",
"*  c #944C33",
"=  c #9C4C33",
"-  c #984A35",
";  c #8C533A",
":  c #8C5A3C",
">  c #935235",
",  c #9C5236",
"<  c #935A36",
"1  c #95543C",
"2  c #9B543C",
"3  c #955A3D",
"4  c #9C5A3D",
"5  c #A44C2C",
"6  c #A9492D",
"7  c #B24D2F",
"8  c #A24D34",
"9  c #AB4D34",
"0  c #A54D39",
"q  c #AB4F3A",
"w  c #B34F34",
"e  c #A55235",
"r  c #AB5335",
"t  c #A3543B",
"y  c #AC553B",
"u  c #A45A3D",
"i  c #AB5B3D",
"p  c #A75936",
"a  c #B25336",
"s  c #B3553A",
"d  c #BB563C",
"f  c #B25A3D",
"g  c #BB5A3D",
"h  c #9F603F",
"j  c #AA603E",
"k  c #B4623E",
"l  c #BB623F",
"z  c #C45C3E",
"x  c #C35639",
"c  c #9F5741",
"v  c #955B43",
"b  c #9C5C42",
"n  c #975D49",
"m  c #A45642",
"M  c #AE5641",
"N  c #A45C43",
"B  c #AB5D43",
"V  c #A35F49",
"C  c #AD5E49",
"Z  c #B25643",
"A  c #BA5740",
"S  c #B35D43",
"D  c #BA5D43",
"F  c #B35D48",
"G  c #BA5F4A",
"H  c #8E6049",
"J  c #936146",
"K  c #9B6144",
"L  c #9C644A",
"P  c #9C694C",
"I  c #93634C",
"U  c #9E6A52",
"Y  c #A46245",
"T  c #AC6244",
"R  c #A4644A",
"E  c #AC644A",
"W  c #A4694C",
"Q  c #AC6A4D",
"!  c #A36944",
"~  c #B36345",
"^  c #BA6245",
"/  c #B46947",
"(  c #B3654B",
")  c #BB654B",
"_  c #B46A4D",
"`  c #BB6B4D",
"'  c #BA6843",
"]  c #BC734E",
"[  c #B6704C",
"{  c #A56651",
"}  c #AE6652",
"|  c #A56B53",
" . c #AD6C52",
".. c #B26651",
"X. c #BC6752",
"o. c #B46C53",
"O. c #BB6D53",
"+. c #B26E59",
"@. c #BA6F58",
"#. c #A57355",
"$. c #AC7255",
"%. c #AD7459",
"&. c #AD7A5A",
"*. c #A5775C",
"=. c #B37255",
"-. c #BB7255",
";. c #BD7A56",
":. c #B5745A",
">. c #BB745A",
",. c #B5795D",
"<. c #BC7A5D",
"1. c #A87560",
"2. c #B57561",
"3. c #BE7660",
"4. c #B57C62",
"5. c #BC7C62",
"6. c #BE7D69",
"7. c #C25E43",
"8. c #CB5F42",
"9. c #C36445",
"0. c #CC6243",
"q. c #C3654A",
"w. c #C9664C",
"e. c #C36B4D",
"r. c #CC6A4D",
"t. c #D16D4F",
"y. c #C36D52",
"u. c #CA6D52",
"i. c #CB6F5C",
"p. c #C16F5A",
"a. c #C37355",
"s. c #CC7254",
"d. c #C47A57",
"f. c #CB7857",
"g. c #C3755B",
"h. c #CA755B",
"j. c #C47A5C",
"k. c #CA7B5D",
"l. c #D47456",
"z. c #D37559",
"x. c #D37B5D",
"c. c #DB795E",
"v. c #C37760",
"b. c #CA7661",
"n. c #C37C63",
"m. c #CA7D63",
"M. c #C27F69",
"N. c #CA7F68",
"B. c #D37D63",
"V. c #D87D63",
"C. c #D57F68",
"Z. c #BF815C",
"A. c #B68365",
"S. c #BD8266",
"D. c #BD846B",
"F. c #BD896C",
"G. c #BC8870",
"H. c #BB9070",
"J. c #C3825E",
"K. c #CA835F",
"L. c #D5815F",
"P. c #C38265",
"I. c #CC8264",
"U. c #CA8966",
"Y. c #C4846A",
"T. c #CC846A",
"R. c #C48A6C",
"E. c #CC8A6D",
"W. c #D38365",
"Q. c #D98265",
"!. c #D98366",
"~. c #D3856A",
"^. c #DA856B",
"/. c #D48A6D",
"(. c #DB8A6D",
"). c #D28966",
"_. c #D0926D",
"`. c #C78370",
"'. c #C58C72",
"]. c #CE8A71",
"[. c #CC8C72",
"{. c #CC8A76",
"}. c #D58771",
"|. c #D88670",
" X c #D38D73",
".X c #DA8D73",
"XX c #D68F79",
"oX c #C59276",
"OX c #CB9274",
"+X c #C7937B",
"@X c #CC947A",
"#X c #CF9A7B",
"$X c #D39275",
"%X c #DB9275",
"&X c #D79877",
"*X c #D4957B",
"=X c #DB947A",
"-X c #D49A7C",
";X c #DB9A7D",
":X c #E08669",
">X c #E28B6D",
",X c #E38F72",
"<X c #E29375",
"1X c #E89377",
"2X c #E3967B",
"3X c #E39A7D",
"4X c #EA9B7D",
"5X c #F19677",
"6X c #DD9781",
"7X c #D39D83",
"8X c #DB9D82",
"9X c #E19D83",
"0X c #E79B85",
"qX c #DAA285",
"wX c #DAA48C",
"eX c #E2A286",
"rX c #E9A287",
"tX c #E4A48A",
"yX c #EDA58A",
/* pixels */
" . .b W P : #.H.&.#.#.,.,.,.>.=.Q P.5.$.:.:.E.P.Y.<.n.n.m.E E T S.5.j.a.h.y.s.Q.a.;.;.Z.J.K.k.k.k.(.(.W.3X=X].Y.*X X*X].=Xn.-.-.",
"E P.4.S.A.&.#.%.%.$.Y.*X:. .:. .5.5.>.:.:.]. X@.-.@.O.g.>.-.( E E.=.@.( ) G S ~ O.~ _ /.d.T ^ ^ ^ ) ) a.m.<.<.Q Q o.o.Q E E E @.",
"Q 5.E =.>.:.=.>.Q N E n.4 Y E b E N N N - O.g.= t = t M 0 0 = M >.E N m ( B ( ~ u t t h.f 9 9 s D S i ~ t -.-.N ( E m B ( ( S u ",
"R :.o.5.<.o.-.<.g.n.-.n.Y Y R  .Q E ( ( ( g.g.= y 0 t M S S S ( T.m.O.-.<.-._ _ B y q.V.D w.u.q.9.q.` ) i k.k.( _ ( ( ( ) ) a.` ",
"{.{.M.5.2.6.{.2.:.Y.6.6.%.| {  .5.T.o.( O.O.g.) ( h.h.C.k.) a.a.a.a.I.P.P.J.U.K.a.s.l.c.c.c.s.Q.x.Q.W.a.k.d.~.d.k.k.m.~.(.x.W.x.",
":.{ R n R %.D.v v n n v n v v ; :.$XQ @.o.E ( O.p.a.S ~.h.i i i i i Q Q ! < _./ ~ f s g D s ` _ ~ m.B T T T :.o.N E T -.) ) a.^.",
"b b b b b R 4.L L L L n n b R K S.[.R  .Q o.O.O.o.( u m.g., u Q T u > 4 ! < $XE = i e y ( Y W K 2 3.2 R N  . . .E  .N -.-.@.@.>.",
"<.<.:.-.o.:.n.Y R  . .=.:.:.:.,.P.R.5.S.:.:.>.O.>.O.O.j./.-.j.-.k.g.m.n.n.k.^..XW.m.W.W.T.E.R.P. XXXn.5.n.Y.<.n.<.T.m.~. Xn.I./.",
"P.;.B ( ) ) ) ( O.( E =X@.o.:.<.:.:.P.P.E g.m.B ( ( ( _ O.-.-.O.B.1X) D 7.q.r.w.^ e.u.4XO.d.-._ y.` ) ` S y.h.^ e.^ q.q.y r f ^ ",
"Q u , ( ) ) ) X.) ( B I.E o.:.<.<.=.o.E 2 Q g.u E ( _ ( _ _ _ T ` B.S A A 7.d s f 5 o k.u B = t 8 + S ` f ` a.5 r s ^ a r 5 5 r ",
"5.=.Q =.B ( O.o.E o. .[.<.>.:.:.=.,.,.,.:.Y.E.E -.:.<.=.-.j.j.o.m..XO.O.o.O.O.o.Q :.<.E.:.<.:.-. . .=. .o.=.n._ Y u _ E T T Q Y ",
";X%X%X.Xh.g.~.o.O.-.@.E.T.v.v.v. XP. .5.:.=.:.=.<.P.j.T.T./.T.-.>.I.>.n.P.Y.;XE.<.P.E.T.T.Y.n.M.;XtX].P.E.Y.E.Y.P.E.I.E.;X$X[.$X",
"` ` y.y.q.G B.y y i i ) e.D A y a.v.E O.( ( o.( O.O.t a.O.( ) S ^ ) ~ E T Y E._ E B t M B ( B E ( n.N ..O.O.>.( ( ( B v.o.4 N Y ",
"y S ^ s y D V.i i i i i s A 7.d h.g.B ..m m m E B B t (.b.S M S ~ i i i i i ^._ t i t = $ u t - m m.B o.o._ O._ B ` t g.o.2 1 b ",
"$X X XT.m.(.<Xv.o.=.;./.g.m.B.b.T. Xn.<.5.Y.P.:.<.<.:.=X Xm.v.n.I.j.I.I.W.B.<Xm././. X%X].T. Xn.m.3XT.T.n.>.-.-.d.g.-. XY.].[.D.",
"qX%.R :.<.<.@.-.n.=.=.$XE ( ( O.@. .Q R :.5.,.$.,.:.o.Q _ -.-.E =.Q E B S S y S B o.o.E.E E o.o.O.B N T u -.I.a.-.-.-.-.=.T.Y.>.",
"S.b Y E Q Q o._ _  .$.$Xu O.o.E o. . .R R W W : R o.E ( B T ( 0 -.u @ e y r 5 e t t m n.E O.( ` ) ~ ) S 8 e.k.O.y.) ) g.O.g.O.M ",
" Xj.k.m.E.P.n.v.P.T.P.;X-.>.O.-.o.-.o. .:.:.R.Q N ( p.( ) O.) ) (.k.` e.e.l s.a.a._ -.T.( O.a.y.O.) B i r h.m.o.p.a._ T ) ) ) ) ",
"^.C.i.i.h.b.|.v.m.T.P.Y.5.<.n.T. X@.S F F F ) y.u.u.y.(.W.a.u.u.O.O.` e.s.s.(.a.k.m.-.>.n.m.a.O.n.T.Y.T.>.n.n.P.I./.E.P.j.k.k.^.",
"F F Z Z 0 M g.$ t E Q R o. .o.R <.g.= Z y M Z Z s r t I.B M t o = C ( ~ i ~ d.u Q Y b N m t i 2 5.4.| &.| W K R Y Y $.R.u ~ ~ _ ",
"B F F B t C v.1 2 4 b b Y Y Y > 4.S.1 C m t t t t B 2 E.K 3 R 1 1 v b b 4 $.,.W L L R  .o.B B m A.*.: : v P P K Q b ! E.t y y S ",
"%X%X%X2X2X%X=XT.%XT.E. XT.T. XT.OX'.Y. X=X X/.I.~.I. X;XE.R.Y.@X*X[.Y.].$XOX*XR.'.OXD.%X=X~.^..XE.R.S.F.A.R.#X*XE.<.,.*Xk.a.O.h.",
";XP.-.-.;.=.o.o.( E o.I.S S G ) O.j.O.O.` -.2X~ ^ u.e.S _ g.a.( v.m.O.v.j._ =.-._ _ >.%XO.S q.G S ~ _ j.g.<.[.R.P.:. .:.:.o.o.O.",
"OX4 u N W Q E u 2 E  .n.8 8 8 M O.( -.O.u _ /.p f ^ s s ~ g.p.t g.n.* E o.o.o._ _ _ u -.e e S G ^ ^ _ ( ~ _ P.P | K ; & ; ; 3 3 ",
"R.K * 4 K 3 3 Y ,.$.A.OXE O.>.<.,.:.,.,.Q Q R.Q B ( S u R W N b ,.D.v L $.%.$.,.,.$.! P.<.Q Q T ) ( Q Y E :.OXP J I I H *.1.| v ",
"P.n.I.(.E.E. X%X=X$X&X&X%X.X%X%XeX-X[.;X&XE.$XU.m.k.I.%XT.S.5.P.oXA.A.@XD.[.8X[.[.$X$X3X%X/.(././.I.P.%X%X X-X'.'.'.'.@XR.Y.M.`.",
"a z 8.9.g 9.u.s r s ^ 9.d g d a ^.` y f r S ^ S A y i ~.` T u B b 4 4 4 - B @.S ) w.g s a D 7.s W._ i -.-.~ ~ _ O.i ~ W.s d g d ",
"d a 7 w 7 w.c.a f s a g a g g r k.~ 5 s D y O y 9 8 , a.T i T B 4 > 4 N m @.b.M S w.w.g d 9.7.s d.T u E ` ~ T T e e i s.d z d z ",
"j.j.;.j.o.:.P.Q =.:.:.;.I.k.k.k.$X;.` y.O.-.v.h.@.j.<.R.<.=.;.:.Y.,.,.R.[.*X*XY.$XI.a.a.d.I.k.-. XY.5.:.5.<.:.Q <.:.P./.` ) ` ` ",
"R.$X[.[.[.S.Y.'.S.R.E.eXP.g.a.a.-.I.W.a.m.T.=X:.n.n.>.=.=._ g.g.[.Y.,.4.2.2.5.6.5.J.j./.k.j.m.I.n.n.P.<.n.n. Xn.v.n.<.P./.m.k.I.",
"I.O.i i E T E O._ N 4  Xr S f y r 5 r i 8 , <.X = 8 y Z S S d 9 a.o.E  .1 b  .Y _ ( i a.y r 9 9 9 a ^ S d D u.r ) S S S ) ^ G f ",
"2X` i ^ _ -.O.~ ` ( E <XS s a g 9.f y i t T ;XY 2 t M r 8 s d s s.-.= B E Y E E u B i x.D A A a a f f f a q.x.y s ^ ~ # o   + 8 ",
"yX^..X~..X=X%X$X$X$XU.;X<X^.5X>X4X;X=X*X$X$X-X*X@X*X[. X(.(.(.(.(.m.W.I.~. XT.T.~.W.k.W.!.f.L.k.k.U.T.T.T.~. XT. XT.[. XE.E.~.m.",
"( T B B N :./.N Q =.u u i f s f j.5.K L R  .V W ,.$.$.E.g.` _ -._ T ` _ _ d./.-._ ` ` e.' ' ' / P.<.N  .Q @. . .4.D.=.8X=.Q :.E ",
"i ~ u ` ` ) k.t B i S f y r r y >.<.% 3 V ..2 ..V 2 V T.( M u T i i j j ` a.W.e T S ^ ^ k k r 5 /.<.N Q E E E o.o.n.Y [.o.@.T E ",
".X/.$X%Xv.v.T.m B u ` ) ) ~ ^ S I.P.R Q -.X.( O.@.o.>..Xh.a.a.-.a.a.I.I._ -./.( -.` u.y.e.u.s.e.~.n.@.o.( B V Q n.T.5.;X5.<.>.E ",
"-XeX*XS.R.OX+X'.D.+X[.XX X X|.(./.~.T.~.~.W.,Xk.W.I.W.(.^.!.^.I.=X;X X$X].Y.Y.n.<.m.~.0X^.W.^.^.T.T.Y.Y.]. X X].M.5.*X[.n.T.T. X",
"'.4.b v v v L L L U J D.V c m C t t u i 8 ) k.y T T i i ~ i i u 5. . .4.| R b b V } N v.t M M F o. . . .R :. .b W W v b W b Y E ",
"&.,.4 1 b 2 1 b R v v OXb * , t M B u M 8 ) k.i T T u u B y y t n. .b Y W  .K b R R N n.y S r M Q W | | K %.| R $.n v $.$.%.=.R ",
"&X;X X X X X~. XT.n.P.8Xn.g.>.o.h.m.m.W.!.!.1XB.W.W.m.W.m.m.m.m.%X$X X XY.R.$XY.E.P.T.$Xa.g.h.W.T.;.P.P.5.R.[.Y.S.S.5.<.n.5.P.U.",
"~.m..X~.h.B.^.b.h.h.m.g.T.T.n.k./..Xh.k.:Xs.l.w.^ s.x.1X2Xk.g.O.-.:.<.<.j.P.9X<.,.;.;.>.k.a.h.) k.W._ a.a.d.a.-.` i i k.a.~ ` a.",
"( O.( o.@.B k.>. Xo.u 2 Q 2 % 1 <.~.i ) f D r r s s ~ %X-.u T Y =.Q Q E o.j. XK W W Y Y T T u = ` a.) a.` ~ ~ T i B i W.~ y i O.",
"-.=.o.=.=.=.$XW %.%.$.W S.A.A.,.R.R.Y ;.E E u E T u Q %X,.K =.Q Y R Q b Y P.;XW W $. .Q W W Q Q =.=.Y =.=. .Q b Y E 2 T.<.=. .E ",
"8X=X=X$XE./.=X$X$X-XOX-XOXOXOX'.'.'.Y.E. X$XeX;X;X=X;X8XqX*XtXtXtX;X=X=X=X=XrX$X*X-X$X;X$X X%XT.T.T.n.Y.Y.[.*XE.T.n.g.=X%X X XT.",
"3X-.i r 9 s a s f i u U.T t , 2 o.Q O.O.=.:.OX=.Y o.=. .=.>._ O.~.` f q.h.) ^ S ~ ` a.%Xy.s ^ s f f y i ~ k.~.y.~ S ) y.y.y.a.` ",
"&X_ y s 6 a 7.g a r = d.t B ~ _ R Y E n.-.5.S.R b b R b b Y T ( /.-.y y ` e.) S S B i .X` f S y r e # = i g.d.i ` ) ) ) S ` ) ~ ",
"9XP.o.>.k.` ` ` O.O.-./.n.n.Y.Y.R.OXE.*X[.8X@X%.<.>.S.R.R.S.Y.5.R.&.W Q _ =.;.;.:.,.,.OX=.o.-.>.<.<.:.:.,.A.S.:.n.<.:.:.N R Q  .",
"T.5.$XE.~.~.2XI.I.W.W.k.I.E..XT.-XOXP.n.%X X XP. X=XP.;XOX*XOX[.OXOX*XOXP.%X9X$XE.E.*XR.[.$X$X[.8X@X'.'.OX[.[.T.n.6.n.*X[.'.[.Y.",
"` _ ~ _ y ) z.r a s g w s D s s g._ B a.w.r.d ^ f ~ Y E.Q T _ B y S i ( T -.I.o.o.( o.B B -.<. .6.<.W 2 o.( S ( ( O.u n.Y E o.:.",
"T T B ~ y e.s.a d g d d s f f e I.-.i f q.9.D ^ r @ Y $Xo.Y E E y S y S B o.>.B B N ( ( Q o. .b 4.,.R 4 B M S G S B t P.b 2 N @.",
"]. Xn.g.m.%X(.h.h.h.g.T.n.E.$XY.7X-XR.P.U.n.n.n.T. X*XtX{.'.Y.M.m.m.I.m.T. X%XY.'.R.'.A.R.'.'.+XwX7XD.Y.,.o.>.>.>.>.n.8XY.'.'.A.",
"*XP.n.<.=.:.-.O.O.@.<.[.<.<.4.#.#.4.,.5.=.Y.<.<.4.M.+.5.5.:.2.+.I.a.k.-.g.-.:.:.4.&.F.oX4.G.'.D.4.A.4. .b Y.E.@.g.m. X X5.[.7X+X",
"T.= E m.<.:.>.o.-.Q =.:.m E _ o.-.-.@.O.t m.O.M E E E T.N.>.>.E ` p ~ f ` ~ ) _ Q Q  .:.v P W %.$.Q Q E t b.-.t B B ) S E E  . .",
"0X@.E Q o.o.o._ Q E -.n.( ( E o.( T T B y W.k.( -.-.@.o.E ( B i s.f k ~ ` ` _ _ o.V o.Y.3 v K L R E o.( ) (.g.e ( B ~ B O.( E  .",
"6X9X9X X%X.X X X X X X XY.P.S.P.R.E.E.T.~.3XrX;X-XqXqX8X$XE.g.B.(.d.I.W./. X=X X X XXX6X].'.'.+X+X'.P.}..X2X.X XI. X9XyX0X6X*X*X",
"V b  .:.@.O.<.Q @.-.o.>.5.:.>.:.,.P._ _ _ _ =.Q A.F.F.OX5.=.-.` ` ( >.:.o.=.n.>.n.v.>.} E $.%.#.+XR.b 1 - = C o.o. . .Y.:.+. .} ",
"E Q =.=.@.>.:.Q =.=.o.C C O.X.M O.O.i y r t u E :.R.S.OX$.Q T i i ( E o.V Q -.o.g.p.b.g.( @. .Q P.6.4 B B B S ( _ E E =.Y Q E C ",
"k.m.k.m.j.-.I.d.~ O.O.O.a.a.u.h./.m.k.k.h.u.@.>.n.R.Y.[.<.-.a.h.h.g.g.v.@.-.n.o.a.O.g.@.` -.m.j.=X X=.g.k.h.h.y.` _ -.P.<.<.O.o.",
",XQ.x.s.x.s.:Xx.f.x.W.(.W.W.k.I.E.P.E.$X^.~.~.j.I.n.n. X.X~.B.h.%XU.P.T.P.T./.I.m.n.k.k.-.a.K.I.~.U.P.U.U.).W.f.W.W.J.E.P.U.n.P.",
"W.S ) S ) ) f f ^ f ~ -.i ` -.Q =.=.:.;.Q _ -., u m E O.@.O.M t n.Q Y o.=.o.E Q :.-.Q -.T / ] d.j.;.J.;.-.] ` r f ~ / -.-.=.Y b ",
"$XN V u 4 Y 2 E , 4 Q <.Y Q =.W  . . .Q N Q O.t N V b c 4 E V N 6.o.b b b R b  . .Q Y <.o.o._ -._ Q Q Q _ a.a.r ^ ` _ ( E  .R Y ",
"*XD.P.P.E.*X XP.E.E.E. Xn.n.Y.].'.P.M.v.a.m.a.O.k.T.T.].].[.5.:.T. XT.Y.Y.].P.5.P.n.P. XT.m.n.n.U.U.d.a.a.B.B.u.s.k.x.k.k.n.n.:.",
"K W R Y o.g.T.( h.@.) ) ( o._ E :.j.) y.u.l.t.s.e.f.a.k.d._ ` a.` O.>.-.:.<.Y.o.<.-.>.o.@.>.g.>.d.I.e.e.w.r.t.r.9.r.s.s.s.h.k.g.",
"3 b R Y E B a.F h.) ) S M _ O.e _ m.O r d x 0.z 9.l k ] d.i ~ ` ^ y ~ E E Y P.R E O.>.O.O.k.O._ [ k.l 9.0.0.0.0.9.l 9.9.D S ~ B "
};
